# xmcd
#
# Track frame offsets:
# 150
# 105140
# 185717
# 217303
#
# Disc length: 4685 seconds
#
#
# Revision: 0
# Processed by: cddbd v1.5.2PL0 Copyright (c) Steve Scherf et al.
# Submitted via: FreeRIP 2.951 
#
DISCID=35124b04
DTITLE=Caribbean Kings - Relembrando os Antigos Carnavais vol. 1
DYEAR=1900
DGENRE=Carnaval
TTITLE0=Marchinhas
TTITLE1=Samba
TTITLE2=Marcha Rancho
TTITLE3=Marchinhas
EXTD=
EXTT0=
EXTT1=
EXTT2=
EXTT3=
PLAYORDER=
